<?xml version="1.0" encoding="UTF-8"?>
<svg version="1.1" xmlns="http://www.w3.org/2000/svg" width="1376" height="1438">
<path d="M0 0 C3.50543038 2.23072843 5.41429963 4.19580675 7 8 C7.57964827 15.58871777 6.00902115 22.25379056 4.15625 29.5859375 C3.72342712 31.35404282 3.72342712 31.35404282 3.28186035 33.15786743 C2.36430372 36.89938849 1.43286733 40.63726982 0.5 44.375 C-0.43043845 48.13470145 -1.35793516 51.89509527 -2.28186035 55.65640259 C-2.8562217 57.99127409 -3.43478727 60.32511617 -4.01794434 62.6578064 C-4.27821411 63.70965118 -4.53848389 64.76149597 -4.80664062 65.84521484 C-5.03758423 66.77071136 -5.26852783 67.69620789 -5.50646973 68.64974976 C-6.10275417 71.08907608 -6.10275417 71.08907608 -6 74 C-5.34 74 -4.68 74 -4 74 C-0.13674536 64.49942818 3.64612139 54.97160289 7.28515625 45.3828125 C7.71256355 44.25789902 7.71256355 44.25789902 8.14860535 43.11026001 C9.58167421 39.33624251 11.00947564 35.56033698 12.43041992 31.78173828 C20.17340556 11.28335338 20.17340556 11.28335338 27 7 C30.625 6.375 30.625 6.375 34 7 C37.98630668 10.88140387 39.16103497 14.43085224 39.33374023 19.8815918 C39.25904583 26.77432327 37.1155821 32.5207061 34.66015625 38.89453125 C34.21860703 40.08551926 33.7770578 41.27650726 33.3221283 42.50358582 C32.15623034 45.64122352 30.97593274 48.77255028 29.78704834 51.90148926 C28.11197917 56.3195177 26.4623514 60.74707556 24.81358337 65.17497253 C23.93696874 67.52487113 23.05358759 69.87225952 22.16261292 72.2167511 C21.76227341 73.28193466 21.3619339 74.34711823 20.94946289 75.44458008 C20.59638565 76.37514725 20.24330841 77.30571442 19.87953186 78.26448059 C18.9472927 81.1639302 18.42932071 83.98831082 18 87 C18.66 87.33 19.32 87.66 20 88 C20.28053223 87.26837646 20.56106445 86.53675293 20.85009766 85.78295898 C21.90264703 83.23561073 23.07047769 80.88495364 24.3984375 78.47265625 C24.8720874 77.60833984 25.3457373 76.74402344 25.83374023 75.85351562 C26.59666382 74.47196289 26.59666382 74.47196289 27.375 73.0625 C28.45736055 71.09523322 29.53938159 69.12777962 30.62109375 67.16015625 C31.45616455 65.64252686 31.45616455 65.64252686 32.30810547 64.09423828 C33.98427072 61.02876664 35.6381244 57.95230266 37.28515625 54.87109375 C38.07817139 53.39467407 38.07817139 53.39467407 38.88720703 51.88842773 C39.89724216 50.00658118 40.90237839 48.12209444 41.90185547 46.23461914 C49.0469378 32.9798838 49.0469378 32.9798838 56 30 C59.8125 29.8125 59.8125 29.8125 63 30 C65.85644535 34.76074226 66.76877616 38.56864635 66 44 C64.46850441 49.23034197 62.18916793 53.9651335 59.7890625 58.8359375 C59.1749501 60.09321152 59.1749501 60.09321152 58.5484314 61.37588501 C57.24412197 64.0439867 55.93460749 66.7094955 54.625 69.375 C53.75226833 71.15868989 52.8798692 72.94254252 52.0078125 74.7265625 C48.36807574 82.16605961 44.71190643 89.59620593 41 97 C42.50409164 95.37878647 44.00299897 93.75276317 45.5 92.125 C45.95560303 91.6304834 46.41120605 91.1359668 46.88061523 90.62646484 C49.80466559 87.41772719 52.46538729 84.10880371 55.0625 80.625 C58.68002494 76.04280175 62.41229947 72.87978096 68 71 C71.4375 70.9375 71.4375 70.9375 74 72 C75.80368244 74.82906355 76.29519095 77.10839196 76.3125 80.4375 C76.32925781 81.17871094 76.34601563 81.91992188 76.36328125 82.68359375 C75.50853956 88.13372087 71.53370881 91.75781775 67.875 95.625 C64.32708981 99.41554222 60.92524647 103.24861184 57.6875 107.3125 C50.99713646 115.60663583 43.69189796 123.52360272 36.0078125 130.91015625 C7.11243539 158.70046937 -4.97169321 198.62897654 -6.52490234 237.83129883 C-6.59112982 239.40808127 -6.59112982 239.40808127 -6.65869522 241.01671791 C-6.80409181 244.49670574 -6.94503361 247.97685885 -7.0859375 251.45703125 C-7.18824756 253.92791298 -7.2908228 256.39878374 -7.39364624 258.86964417 C-7.63968187 264.80036992 -7.88278969 270.73121104 -8.12429607 276.66212255 C-8.31939316 281.45254356 -8.51557515 286.24291895 -8.71252441 291.03326416 C-8.74049087 291.71356674 -8.76845733 292.39386931 -8.79727125 293.09478712 C-8.8538248 294.47045998 -8.91037944 295.8461328 -8.96693516 297.22180557 C-9.44321837 308.81035876 -9.91633204 320.39903872 -10.38769531 331.98779297 C-10.7961045 342.02753497 -11.20892499 352.06707724 -11.62800026 362.10637951 C-11.91233516 368.91923736 -12.19325482 375.73222815 -12.47072411 382.54536915 C-12.64518181 386.82766261 -12.82210261 391.10982963 -13.00446701 395.3917942 C-13.70395711 412.20722543 -14.16355985 429.02057845 -14.4934082 445.84692383 C-14.51478981 446.92432968 -14.53617142 448.00173554 -14.55820096 449.11179006 C-15.03254736 473.16494603 -15.35109159 497.21940154 -15.64149499 521.27536869 C-15.71435469 527.26858002 -15.78965889 533.26176066 -15.86479187 539.25494385 C-15.97567472 548.11224916 -16.08604691 556.96956047 -16.19562632 565.826882 C-16.53537177 593.28572885 -16.88460171 620.7444543 -17.23828125 648.203125 C-17.26296525 650.12014217 -17.26296525 650.12014217 -17.28814793 652.07588696 C-17.81214417 692.72993523 -18.36569584 733.38317723 -19.06456375 774.03463364 C-19.12429202 777.52117293 -19.1828554 781.00773019 -19.24118042 784.49429321 C-19.33033385 789.79740509 -19.42300586 795.10044274 -19.51902199 800.40343475 C-19.55190208 802.2307465 -19.58402333 804.05807216 -19.61517906 805.88541412 C-19.85156664 819.60067457 -20.38380291 833.29680332 -21 847 C-39.29165625 847.03324549 -57.58331816 847.05188561 -75.875 847.0625 C-76.96282988 847.06315145 -76.96282988 847.06315145 -78.07263613 847.06381607 C-146.60513097 847.10365723 -215.13637002 846.81517218 -283.66801131 846.50902146 C-285.6935794 846.49997284 -287.71914754 846.49093476 -289.74471569 846.48189783 C-324.49650298 846.32678344 -359.2482638 846.16616609 -394 846 C-399.11588537 835.76822925 -391.57537467 816.9676789 -388.30761719 806.85791016 C-384.81298631 796.44568958 -380.16517393 786.67655784 -375 777 C-374.62939453 776.30277832 -374.25878906 775.60555664 -373.87695312 774.88720703 C-369.51194299 766.73732273 -365.06112933 759.03036398 -359 752 C-358.38640625 751.24332031 -357.7728125 750.48664062 -357.140625 749.70703125 C-345.27173408 735.53557549 -331.42201153 731.24339932 -313.5546875 729.578125 C-304.90266512 728.75628266 -296.90014569 727.93035534 -289 724 C-287.79150391 723.43732422 -287.79150391 723.43732422 -286.55859375 722.86328125 C-284.10332328 721.4413594 -282.6394635 720.32068102 -281 718 C-278.74116659 708.24913529 -281.9100425 694.32511118 -286.90625 685.71484375 C-288.76202881 683.30856339 -290.27943324 681.7151042 -292.75 680 C-293.44351563 679.50371094 -294.13703125 679.00742187 -294.8515625 678.49609375 C-295.56054688 678.00238281 -296.26953125 677.50867188 -297 677 C-310.49021254 667.52653613 -315.89648999 656.19033895 -319 640 C-319.45001098 636.67079259 -319.784918 633.3523126 -320 630 C-320.825 630.144375 -321.65 630.28875 -322.5 630.4375 C-327.890095 629.76373812 -330.48198492 627.0041408 -334 623 C-339.71657174 615.18034167 -344.39640828 607.00897929 -348 598 C-348.433125 596.948125 -348.86625 595.89625 -349.3125 594.8125 C-350.94769877 588.12305049 -350.26582908 583.16073666 -347.265625 577.0546875 C-345.21848161 573.73123867 -343.34138994 572.07166176 -340 570 C-336.8046875 569.87890625 -336.8046875 569.87890625 -334 570 C-334.03309742 567.74937546 -334.10257876 565.49926535 -334.1875 563.25 C-334.22230469 561.99703125 -334.25710938 560.7440625 -334.29296875 559.453125 C-335.16621018 555.18823317 -336.59370314 554.50225599 -340 552 C-340.5234375 549.88671875 -340.5234375 549.88671875 -340.375 547.6875 C-340.33117187 546.90890625 -340.28734375 546.1303125 -340.2421875 545.328125 C-339.91625294 542.19494757 -339.5287203 539.10623174 -339 536 C-340.65 536.33 -342.3 536.66 -344 537 C-345.58493339 533.03286369 -344.30151944 530.61794866 -342.6875 526.8125 C-340.55226422 521.530914 -338.92168271 516.62226456 -338 511 C-338.33 510.34 -338.66 509.68 -339 509 C-336.52640855 502.40375612 -331.84732022 497.30748439 -327.0859375 492.26171875 C-324.05721641 488.97776835 -321.80403501 486.44204357 -320.9375 482 C-320.77894531 481.22011719 -320.62039063 480.44023437 -320.45703125 479.63671875 C-320.12981031 477.74890561 -319.83971947 475.85450888 -319.57421875 473.95703125 C-318.51682657 466.55528598 -317.10495093 462.25682353 -311.84375 456.73828125 C-306.15420384 450.70699287 -302 445.5692436 -302 437 C-301.34515625 436.91363281 -300.6903125 436.82726562 -300.015625 436.73828125 C-294.93478038 435.95606082 -290.48670026 434.90999447 -285.8125 432.75 C-272.86628295 427.02248513 -258.30311322 424.69741856 -244.52734375 421.65625 C-242.22323277 421.05796461 -240.22744744 420.28470093 -238.0625 419.3125 C-229.56902734 415.92224831 -219.30529721 417.91541495 -210.5703125 419.44140625 C-207.22249144 419.96519007 -203.91243714 420.3051455 -200.53979492 420.60107422 C-153.13846362 424.86153638 -153.13846362 424.86153638 -144 434 C-143.95936168 435.66617115 -143.957279 437.33388095 -144 439 C-143.34 439.185625 -142.68 439.37125 -142 439.5625 C-137.73094732 441.60808774 -134.25836294 444.57184643 -131 448 C-131 448.66 -131 449.32 -131 450 C-130.2575 450.28875 -129.515 450.5775 -128.75 450.875 C-127.8425 451.24625 -126.935 451.6175 -126 452 C-124.948125 452.309375 -124.948125 452.309375 -123.875 452.625 C-121.29653385 454.51587518 -120.89004168 456.81358747 -119.92578125 459.765625 C-118.56185636 463.05746061 -116.45108435 465.59502593 -114.20703125 468.3359375 C-113 470 -113 470 -113 472 C-112.34 472 -111.68 472 -111 472 C-111.02505615 470.71794678 -111.0501123 469.43589355 -111.07592773 468.11499023 C-111.07191637 463.049504 -110.50465418 458.16785488 -109.78515625 453.16015625 C-109.65484512 452.22367249 -109.524534 451.28718872 -109.39027405 450.32232666 C-108.95648034 447.23439147 -108.51102888 444.14832791 -108.0625 441.0625 C-107.8271756 439.43397598 -107.8271756 439.43397598 -107.58709717 437.77255249 C-102.29689316 401.34954749 -95.28411788 365.28973326 -88.08630371 329.20576859 C-73.69650619 258.63048211 -73.69650619 258.63048211 -67 187 C-66.88591797 185.19402344 -66.88591797 185.19402344 -66.76953125 183.3515625 C-66.38426876 173.75123785 -68.28368328 165.21166572 -70.61328125 155.9453125 C-71.57892033 152.04811138 -72.31786749 148.1619115 -72.94830322 144.19689941 C-74.83479186 132.46708274 -78.31194433 121.32708373 -81.88696289 110.01660156 C-92.40093435 76.57018682 -92.40093435 76.57018682 -87 63 C-85.62719938 60.3943706 -84.09808196 58.09808196 -82 56 C-79.75 55.625 -79.75 55.625 -77 56 C-68.85330799 62.26668617 -64.81418892 73.17813333 -60.9375 82.375 C-60.5055835 83.37998535 -60.07366699 84.3849707 -59.62866211 85.42041016 C-57.82207396 89.63680607 -56.03910842 93.8594399 -54.3515625 98.125 C-53.92617188 99.1975 -53.50078125 100.27 -53.0625 101.375 C-52.72347656 102.26960938 -52.38445312 103.16421875 -52.03515625 104.0859375 C-51.09334494 106.34890476 -51.09334494 106.34890476 -48 107 C-44.12143606 105.68663046 -42.41078526 104.80643453 -40.52905273 101.11230469 C-40.18817627 99.89446289 -39.8472998 98.67662109 -39.49609375 97.421875 C-39.2992247 96.73123962 -39.10235565 96.04060425 -38.89952087 95.32904053 C-35.56924359 83.29258161 -33.01748878 71.03264376 -30.30493164 58.84667969 C-27.74985072 47.40532929 -25.16332139 36.00574904 -21.81640625 24.765625 C-21.57986832 23.96723206 -21.34333038 23.16883911 -21.09962463 22.34625244 C-18.62607596 14.30609251 -15.41694592 6.69285474 -9 1 C-5.66660588 -0.11113137 -3.49519344 -0.34951934 0 0 Z " fill="#89C32E" transform="translate(694,0)"/>
<path d="M0 0 C146.19 0 292.38 0 443 0 C443.70671475 3.53357375 444.16986863 6.51586686 444.34803772 10.05409241 C444.39989731 11.04805527 444.4517569 12.04201813 444.50518799 13.06610107 C444.55769714 14.14522766 444.6102063 15.22435425 444.66430664 16.33618164 C444.72297409 17.48140793 444.78164154 18.62663422 444.84208679 19.80656433 C445.03502902 23.59092279 445.22265343 27.3755247 445.41015625 31.16015625 C445.54295301 33.78903167 445.67604933 36.41789197 445.80943298 39.04673767 C446.08840102 44.55520616 446.36460771 50.06380735 446.63891602 55.57250977 C446.99085938 62.64006823 447.34715719 69.70739995 447.7049036 76.77466679 C448.04569263 83.50725258 448.38419422 90.23995312 448.72265625 96.97265625 C448.82003932 98.90520106 448.82003932 98.90520106 448.91938972 100.87678719 C449.10237866 104.51554229 449.2839683 108.15436432 449.46508789 111.79321289 C449.51962128 112.87436371 449.57415466 113.95551453 449.63034058 115.06942749 C449.67938034 116.06057053 449.7284201 117.05171356 449.77894592 118.07289124 C449.84336679 119.3628782 449.84336679 119.3628782 449.90908909 120.67892551 C449.99156149 122.78455374 450 124.89275727 450 127 C445.01741233 127.65345412 440.20355808 128.06160639 435.17578125 128.03125 C433.71458862 128.02448242 433.71458862 128.02448242 432.22387695 128.01757812 C431.48999756 128.01177734 430.75611816 128.00597656 430 128 C429.7666394 126.98184204 429.7666394 126.98184204 429.52856445 125.94311523 C424.10262851 102.41745167 418.49228039 79.13752284 403 60 C402.37996094 59.175 401.75992187 58.35 401.12109375 57.5 C389.65643091 43.98732189 370.78125416 35.45472081 354 31 C353.00154053 30.73195557 353.00154053 30.73195557 351.98291016 30.45849609 C329.37287611 24.60642509 305.68902661 23.93145077 282.46875 22.9140625 C280.4723178 22.82426159 278.47589841 22.73417541 276.47949219 22.64379883 C271.65313569 22.42592057 266.82662395 22.21186722 262 22 C262.05896243 64.86322185 262.13357399 107.72639138 262.22898628 150.58954837 C262.24025358 155.65727354 262.25139218 160.72499898 262.26245117 165.79272461 C262.2657567 167.30597637 262.2657567 167.30597637 262.269129 168.84979888 C262.30443988 185.15523467 262.329339 201.46067041 262.35034702 217.76613019 C262.37215865 234.51416617 262.4052597 251.26215282 262.44870156 268.0101468 C262.47512615 278.33308815 262.4928891 288.65596811 262.49934604 298.97894158 C262.50462818 306.07101156 262.52093916 313.16300447 262.54566566 320.25503305 C262.5595845 324.33833663 262.56888791 328.42150257 262.56500816 332.50483131 C261.56421229 368.32497608 261.56421229 368.32497608 275.98828125 400.00390625 C290.50277919 414.40567023 309.6972097 415.9261465 329 418 C329 424.27 329 430.54 329 437 C257.39 437 185.78 437 112 437 C112 430.73 112 424.46 112 418 C114.3203125 417.76216797 114.3203125 417.76216797 116.6875 417.51953125 C135.74896612 415.44146491 153.73368098 413.28320792 166.875 397.75 C176.24400544 384.52580572 177.84517132 368.62436097 178.56529236 352.85029602 C178.60617413 351.96183937 178.64705589 351.07338273 178.6891765 350.15800315 C179.2178149 337.31023982 179.17728878 324.44984098 179.20060861 311.59340823 C179.20873938 307.69393469 179.22239177 303.79447958 179.23532104 299.89501953 C179.25690734 293.16407549 179.27511539 286.43312941 179.29092598 279.70216942 C179.31378953 269.97073297 179.34190794 260.23931707 179.37124526 250.50789825 C179.41872121 234.71336384 179.46203851 218.91882093 179.50268555 203.12426758 C179.54214296 187.79548484 179.58359313 172.46670959 179.62768555 157.13793945 C179.63177196 155.71693786 179.63177196 155.71693786 179.63594092 154.26722916 C179.64962208 149.51399366 179.66334202 144.76075827 179.67708123 140.00752294 C179.79073125 100.67169762 179.89760902 61.33585615 180 22 C172.77435033 22.38646957 165.54912349 22.78024561 158.3241272 23.17874146 C155.87406097 23.31305412 153.42390754 23.44578706 150.97366333 23.57681274 C92.64901689 25.89429955 92.64901689 25.89429955 44 55 C27.26893131 74.79342326 20.37027646 99.09971598 14.5690918 123.83959961 C14 126 14 126 13 128 C6.55929529 128.10655578 0.37358711 127.96205088 -6 127 C-6 84.61944891 -2.18917099 42.32397242 0 0 Z " fill="#89C32E" transform="translate(10,883)"/>
<path d="M0 0 C9.24 0 18.48 0 28 0 C38.39001844 23.94039241 48.67214351 47.9241087 58.85888672 71.95166016 C62.04720384 79.47085794 65.2431358 86.98681925 68.43850708 94.50302124 C70.20931785 98.66854774 71.97963384 102.83428452 73.75 107 C74.45833096 108.66666767 75.1666643 110.33333434 75.875 112 C97.12499996 161.99999991 97.12499996 161.99999991 98.18753052 164.50007629 C98.89575782 166.16649048 99.60398942 167.83290283 100.31222534 169.49931335 C102.08471634 173.66982799 103.85713213 177.84037455 105.62939453 182.01098633 C108.79706395 189.46516754 111.96521362 196.91914224 115.13626099 204.37188721 C122.43242548 221.51982633 129.71198139 238.67449859 136.95288086 255.84585571 C165.32299202 344.4801917 165.32299202 344.4801917 222.08203125 410.6875 C230.06293897 413.57971202 238.64464048 414.70208008 247 416 C248.1442041 416.17789063 248.1442041 416.17789063 249.31152344 416.359375 C253.20296897 416.95343484 257.09677153 417.48528855 261 418 C261 424.27 261 430.54 261 437 C187.41 437 113.82 437 38 437 C38 430.73 38 424.46 38 418 C39.79824219 417.75765625 41.59648438 417.5153125 43.44921875 417.265625 C45.86205719 416.92763985 48.2748133 416.58906662 50.6875 416.25 C51.86634766 416.09273437 53.04519531 415.93546875 54.25976562 415.7734375 C68.63150408 413.72595695 82.36285058 410.61652683 91.78515625 398.79296875 C97.03989733 391.03757919 97.95451404 382.34527864 96.3359375 373.28125 C96.01882813 372.0334375 95.70171875 370.785625 95.375 369.5 C95.07335938 368.2728125 94.77171875 367.045625 94.4609375 365.78125 C90.11644365 350.70717284 83.43307971 336.2472831 77.375 321.8125 C69.87198769 303.8931804 62.42794666 285.9508711 55 268 C11.44 267.67 -32.12 267.34 -77 267 C-78.485 271.455 -78.485 271.455 -80 276 C-81.96500262 281.37523974 -84.0164771 286.71766292 -86.0625 292.0625 C-86.34901428 292.81332855 -86.63552856 293.5641571 -86.9307251 294.33773804 C-90.58365127 303.90182522 -94.36232714 313.3924002 -98.375 322.8125 C-112.65873538 355.94771766 -112.65873538 355.94771766 -110.31640625 390.85546875 C-105.72065398 401.83345266 -97.99575781 408.74109058 -87.0625 413.25 C-78.99085535 415.95610052 -70.38885161 416.81009197 -62 418 C-62 424.27 -62 430.54 -62 437 C-113.48 437 -164.96 437 -218 437 C-218 430.73 -218 424.46 -218 418 C-215.133125 417.608125 -212.26625 417.21625 -209.3125 416.8125 C-188.2307917 413.61365984 -173.33622314 403.28020996 -160.6171875 386.43505859 C-129.81760609 343.9143014 -114.1404648 287.81830222 -95.0871582 239.43139648 C-88.83902769 223.56699681 -82.54405263 207.72121894 -76.25 191.875 C-75.66647175 190.40581323 -75.08294515 188.93662581 -74.49942017 187.46743774 C-72.12323764 181.4848169 -69.74692905 175.50224615 -67.3704071 169.51976013 C-61.91427215 155.78486736 -56.46021214 142.04915123 -51.00660801 128.3132534 C-49.06106461 123.4130602 -47.11540338 118.5129138 -45.16967773 113.61279297 C-39.92941153 100.41562348 -34.68953322 87.21830028 -29.45083618 74.02050781 C-27.2958902 68.59158413 -25.14077356 63.1627282 -22.9856205 57.73388672 C-21.52249732 54.04823379 -20.05946864 50.36254341 -18.59667969 46.67675781 C-12.41842437 31.10954277 -6.22929825 15.54688222 0 0 Z M-13 104 C-15.70977297 110.8327632 -18.41794471 117.66615964 -21.125 124.5 C-21.54339142 125.55620544 -21.96178284 126.61241089 -22.39285278 127.70062256 C-29.91506931 146.6947394 -37.39291931 165.70609264 -44.84924316 184.72616577 C-53.75434477 207.44132944 -53.75434477 207.44132944 -58.05859375 218.10546875 C-58.35255539 218.83459473 -58.64651703 219.5637207 -58.9493866 220.31494141 C-60.24287581 223.52006225 -61.54284781 226.72215399 -62.85327148 229.92041016 C-63.49437866 231.50088135 -63.49437866 231.50088135 -64.1484375 233.11328125 C-64.69250244 234.44033081 -64.69250244 234.44033081 -65.24755859 235.79418945 C-66.16142548 238.08478901 -66.16142548 238.08478901 -66 241 C-29.7 241 6.6 241 44 241 C42.15558633 234.85195444 40.39458964 229.15017793 37.875 223.328125 C37.57610367 222.62473495 37.27720734 221.92134491 36.96925354 221.19664001 C36.32285619 219.67649276 35.67419601 218.15730605 35.02346802 216.63900757 C33.22129331 212.43232115 31.43792347 208.21765691 29.65234375 204.00390625 C29.27456284 203.11347122 28.89678192 202.22303619 28.5075531 201.30561829 C24.53142952 191.92123047 20.63798152 182.50314944 16.75460815 173.08007812 C15.56340212 170.18968895 14.37085832 167.29985501 13.17797852 164.41015625 C9.54601563 155.60983245 5.91970709 146.8072272 2.30403137 138.00019836 C0.72736301 134.16232659 -0.85321599 130.32607323 -2.43460083 126.49014282 C-3.18196469 124.67448078 -3.92749211 122.85806164 -4.67111206 121.04086304 C-5.69420519 118.54098551 -6.723335 116.043677 -7.75390625 113.546875 C-8.05507355 112.80651505 -8.35624084 112.06615509 -8.66653442 111.30335999 C-10.31668236 107.3253351 -10.31668236 107.3253351 -13 104 Z " fill="#79C716" transform="translate(1111,883)"/>
<path d="M0 0 C70.95 0 141.9 0 215 0 C215 6.27 215 12.54 215 19 C212.669375 19.268125 210.33875 19.53625 207.9375 19.8125 C189.66391548 22.05642609 172.47917172 24.90846552 160.33984375 40.07421875 C152.85539484 50.83175028 150.72023851 63.45768233 149.8269043 76.31079102 C149.74712436 77.4385045 149.66734442 78.56621798 149.5851469 79.72810459 C148.42607723 98.6605924 148.72874305 117.66591027 148.76428056 136.62452006 C148.77320195 142.40621865 148.7713009 148.18791568 148.7709198 153.96961975 C148.77185058 163.67141081 148.78045325 173.37317022 148.79418945 183.07495117 C148.80990406 194.21360759 148.81518729 205.35222946 148.8144539 216.49089617 C148.81377278 228.46165237 148.82074457 240.43239568 148.8299005 252.40314794 C148.83200853 255.80319409 148.83273846 259.20323809 148.83313942 262.60328484 C144.83036146 331.42986559 144.83036146 331.42986559 171 392 C171.85271484 392.93392578 171.85271484 392.93392578 172.72265625 393.88671875 C192.5980692 413.32530944 224.74521549 414.45777057 250.72265625 414.21484375 C284.24660755 413.49413923 316.40357525 406.05263965 341 382 C360.26956565 361.28733912 367.81402017 333.58125615 373.78027344 306.68774414 C374.05645508 305.44500732 374.33263672 304.20227051 374.6171875 302.921875 C374.86065918 301.80393555 375.10413086 300.68599609 375.35498047 299.53417969 C376 297 376 297 377 296 C378.41844613 295.9834089 379.83787607 296.0366946 381.25390625 296.12109375 C382.40741577 296.18574829 382.40741577 296.18574829 383.58422852 296.25170898 C384.56705811 296.31302002 385.5498877 296.37433105 386.5625 296.4375 C388.19744082 296.53550797 389.83240665 296.63309911 391.46739197 296.73036194 C392.31643569 296.7808925 393.16547941 296.83142305 394.04025173 296.88348484 C394.68696866 296.92193484 395.33368559 296.96038485 396 297 C396.11669427 314.97105917 395.82575805 332.88953148 395.16015625 350.84765625 C395.07258194 353.29291264 394.98530274 355.73817962 394.89830017 358.18345642 C394.71731481 363.23952968 394.53292718 368.29546334 394.34594727 373.35131836 C394.1062627 379.8396053 393.87529411 386.32817001 393.6467371 392.81685734 C393.4690871 397.83449105 393.28703534 402.85195742 393.10360527 407.86938286 C393.01653637 410.26522395 392.93083189 412.66111504 392.84651375 415.05705452 C392.72906032 418.37554023 392.60570907 421.69375392 392.48071289 425.01196289 C392.44690521 426.0002861 392.41309753 426.98860931 392.37826538 428.00688171 C392.3432341 428.90458282 392.30820282 429.80228394 392.27210999 430.72718811 C392.2435344 431.50882859 392.21495882 432.29046907 392.18551731 433.09579563 C392 435 392 435 391 437 C261.97 437 132.94 437 0 437 C0 430.4 0 423.8 0 417 C4.2384375 416.87625 4.2384375 416.87625 8.5625 416.75 C25.32620443 415.99955869 41.33140335 411.72123397 53 399 C67.29061743 380.41264905 65.2978064 354.63128542 65.2746582 332.52246094 C65.27792334 329.76440505 65.28413411 327.00635736 65.29014587 324.24830627 C65.30281826 317.56750237 65.30469593 310.8867388 65.30234561 304.2059249 C65.30055377 298.76835429 65.30233053 293.33079579 65.30657005 287.89322662 C65.30716524 287.11574169 65.30776043 286.33825676 65.30837366 285.53721167 C65.30958556 283.95711984 65.3107997 282.37702801 65.31201603 280.79693618 C65.32286298 266.01781497 65.32074269 251.23871664 65.31463119 236.45959416 C65.30946539 222.98168633 65.32071367 209.50385085 65.33972941 196.02595732 C65.35916887 182.13975501 65.36735309 168.25358683 65.36360615 154.36737084 C65.36170324 146.59022402 65.36409208 138.81313873 65.37832069 131.03600311 C65.39031376 124.41455796 65.39155165 117.7932122 65.37953053 111.17176548 C65.37369655 107.80307755 65.37405715 104.43471731 65.38453293 101.06601906 C66.03408305 67.04086812 66.03408305 67.04086812 52 36.9921875 C39.28297522 24.3248386 23.21353131 21.18082194 5.96875 20.24609375 C3 20 3 20 0 19 C0 12.73 0 6.46 0 0 Z " fill="#79C716" transform="translate(466,883)"/>
<path d="M0 0 C454.08 0 908.16 0 1376 0 C1376 12.54 1376 25.08 1376 38 C1374.10525261 39.89474739 1371.32540845 39.12494932 1368.80375425 39.13259384 C1367.90056725 39.13020309 1366.99738026 39.12781235 1366.06682396 39.12534916 C1365.11152696 39.12675148 1364.15622997 39.1281538 1363.17198458 39.12959861 C1359.92180019 39.13312063 1356.67166207 39.12942041 1353.42147827 39.12584114 C1351.07735714 39.12688281 1348.73323618 39.12836295 1346.38911557 39.13024551 C1341.25102916 39.13334851 1336.11295236 39.13329794 1330.97486615 39.13056196 C1323.28294519 39.1264845 1315.59103289 39.12813813 1307.89911174 39.1309446 C1294.79288556 39.13555603 1281.68666324 39.13538907 1268.58043671 39.13266373 C1255.29015779 39.12991691 1241.99988142 39.12932855 1228.70960236 39.13140106 C1227.87161543 39.13153023 1227.0336285 39.13165941 1226.17024804 39.13179249 C1222.75751788 39.13232574 1219.34478773 39.13287444 1215.93205758 39.13344277 C1184.10991697 39.13873847 1152.28777807 39.139088 1120.46563721 39.13629532 C1119.52175651 39.13621252 1118.5778758 39.13612973 1117.60539266 39.13604442 C1116.18732338 39.13592003 1116.18732338 39.13592003 1114.74060625 39.13579312 C1085.97573192 39.13327311 1057.2108583 39.13261707 1028.44598389 39.13381577 C1026.52211862 39.13389324 1024.59825336 39.1339704 1022.6743881 39.13404724 C1014.94378505 39.13435768 1007.213182 39.13467635 999.48257896 39.135007 C977.8703745 39.13592415 956.25817005 39.13649465 934.64596558 39.13679314 C933.16953246 39.13681361 933.16953246 39.13681361 931.66327241 39.13683449 C900.28472097 39.13724396 868.90616977 39.13611588 837.52761841 39.13394356 C836.50941053 39.13387331 835.49120265 39.13380306 834.44213999 39.13373068 C817.90557402 39.13258564 801.36900805 39.13136622 784.83244209 39.13014051 C719.24050758 39.12528392 653.64857512 39.12550933 588.05664062 39.13037109 C571.52855428 39.13159222 555.00046794 39.13280324 538.47238159 39.13394356 C536.94598081 39.13404923 536.94598081 39.13404923 535.38874364 39.13415704 C504.04384054 39.1363122 472.6989376 39.13722769 441.35403442 39.13679314 C440.37046224 39.13677955 439.38689006 39.13676597 438.37351266 39.13675197 C416.78559404 39.13643954 395.19767545 39.13580598 373.60975685 39.13488263 C365.88593369 39.13455347 358.16211053 39.13424039 350.43828736 39.13393192 C348.51668127 39.13385453 346.59507517 39.1337758 344.67346908 39.13369573 C315.9138482 39.13250057 287.15422812 39.1335216 258.39460734 39.13604442 C256.97878629 39.13616862 256.97878629 39.13616862 255.53436279 39.13629532 C254.59221207 39.136378 253.65006134 39.13646068 252.67936059 39.13654587 C220.95180462 39.1392998 189.22425071 39.13829823 157.49669504 39.13301457 C154.09459591 39.13246218 150.69249678 39.13192548 147.29039764 39.13140106 C146.45542615 39.13127086 145.62045465 39.13114065 144.76018098 39.1310065 C131.5016382 39.12902872 118.24309797 39.13041306 104.98455541 39.13317007 C91.96951711 39.13580563 78.95448313 39.13490465 65.93944538 39.13015598 C58.29468058 39.1274736 50.64992757 39.12756682 43.00516331 39.13163758 C37.35158223 39.13434669 31.69801316 39.13192167 26.04443368 39.1273813 C23.75523867 39.12636404 21.46604217 39.12706626 19.17684832 39.12958724 C16.09560116 39.13274288 13.01442 39.12987224 9.93317604 39.12534916 C9.02998905 39.12773991 8.12680205 39.13013065 7.19624575 39.13259384 C1.11415569 39.11415569 1.11415569 39.11415569 0 38 C0 25.46 0 12.92 0 0 Z " fill="#DE8E62" transform="translate(0,1399)"/>
<path d="M0 0 C70.95 0 141.9 0 215 0 C215 6.27 215 12.54 215 19 C212.669375 19.268125 210.33875 19.53625 207.9375 19.8125 C189.66391548 22.05642609 172.47917172 24.90846552 160.33984375 40.07421875 C152.85539484 50.83175028 150.72023851 63.45768233 149.8269043 76.31079102 C149.74712436 77.4385045 149.66734442 78.56621798 149.5851469 79.72810459 C148.42607723 98.6605924 148.72874305 117.66591027 148.76428056 136.62452006 C148.77320195 142.40621865 148.7713009 148.18791568 148.7709198 153.96961975 C148.77185058 163.67141081 148.78045325 173.37317022 148.79418945 183.07495117 C148.80990406 194.21360759 148.81518729 205.35222946 148.8144539 216.49089617 C148.81377278 228.46165237 148.82074457 240.43239568 148.8299005 252.40314794 C148.83200853 255.80319409 148.83273846 259.20323809 148.83313942 262.60328484 C144.83036146 331.42986559 144.83036146 331.42986559 171 392 C171.85271484 392.93392578 171.85271484 392.93392578 172.72265625 393.88671875 C192.5980692 413.32530944 224.74521549 414.45777057 250.72265625 414.21484375 C284.24660755 413.49413923 316.40357525 406.05263965 341 382 C360.26956565 361.28733912 367.81402017 333.58125615 373.78027344 306.68774414 C374.05645508 305.44500732 374.33263672 304.20227051 374.6171875 302.921875 C374.86065918 301.80393555 375.10413086 300.68599609 375.35498047 299.53417969 C376 297 376 297 377 296 C378.41844613 295.9834089 379.83787607 296.0366946 381.25390625 296.12109375 C382.40741577 296.18574829 382.40741577 296.18574829 383.58422852 296.25170898 C384.56705811 296.31302002 385.5498877 296.37433105 386.5625 296.4375 C388.19744082 296.53550797 389.83240665 296.63309911 391.46739197 296.73036194 C392.31643569 296.7808925 393.16547941 296.83142305 394.04025173 296.88348484 C394.68696866 296.92193484 395.33368559 296.96038485 396 297 C396.11669427 314.97105917 395.82575805 332.88953148 395.16015625 350.84765625 C395.07258194 353.29291264 394.98530274 355.73817962 394.89830017 358.18345642 C394.71731481 363.23952968 394.53292718 368.29546334 394.34594727 373.35131836 C394.1062627 379.8396053 393.87529411 386.32817001 393.6467371 392.81685734 C393.4690871 397.83449105 393.28703534 402.85195742 393.10360527 407.86938286 C393.01653637 410.26522395 392.93083189 412.66111504 392.84651375 415.05705452 C392.72906032 418.37554023 392.60570907 421.69375392 392.48071289 425.01196289 C392.44690521 426.0002861 392.41309753 426.98860931 392.37826538 428.00688171 C392.3432341 428.90458282 392.30820282 429.80228394 392.27210999 430.72718811 C392.2435344 431.50882859 392.21495882 432.29046907 392.18551731 433.09579563 C392 435 392 435 391 437 C261.97 437 132.94 437 0 437 C0 430.4 0 423.8 0 417 C4.2384375 416.87625 4.2384375 416.87625 8.5625 416.75 C25.32620443 415.99955869 41.33140335 411.72123397 53 399 C67.29061743 380.41264905 65.2978064 354.63128542 65.2746582 332.52246094 C65.27792334 329.76440505 65.28413411 327.00635736 65.29014587 324.24830627 C65.30281826 317.56750237 65.30469593 310.8867388 65.30234561 304.2059249 C65.30055377 298.76835429 65.30233053 293.33079579 65.30657005 287.89322662 C65.30716524 287.11574169 65.30776043 286.33825676 65.30837366 285.53721167 C65.30958556 283.95711984 65.3107997 282.37702801 65.31201603 280.79693618 C65.32286298 266.01781497 65.32074269 251.23871664 65.31463119 236.45959416 C65.30946539 222.98168633 65.32071367 209.50385085 65.33972941 196.02595732 C65.35916887 182.13975501 65.36735309 168.25358683 65.36360615 154.36737084 C65.36170324 146.59022402 65.36409208 138.81313873 65.37832069 131.03600311 C65.39031376 124.41455796 65.39155165 117.7932122 65.37953053 111.17176548 C65.37369655 107.80307755 65.37405715 104.43471731 65.38453293 101.06601906 C66.03408305 67.04086812 66.03408305 67.04086812 52 36.9921875 C39.28297522 24.3248386 23.21353131 21.18082194 5.96875 20.24609375 C3 20 3 20 0 19 C0 12.73 0 6.46 0 0 Z M37 12 C39.64588276 13.76392184 42.23127608 15.13263008 45.0625 16.5625 C58.85960396 24.07162395 68.61466536 35.78977186 73.38623047 50.72216797 C75.42820846 58.30039176 76.19016039 66.21059509 77 74 C77.1199176 75.0234608 77.1199176 75.0234608 77.24225777 76.06759757 C77.95402643 82.48219818 78.14835827 88.8073077 78.14717102 95.25764465 C78.15084771 96.34828663 78.1545244 97.43892861 78.1583125 98.56262034 C78.16927174 102.19515348 78.17318003 105.82765794 78.17700195 109.46020508 C78.18327283 112.07469268 78.18992018 114.6891794 78.19691467 117.30366516 C78.21659552 125.13507769 78.22673731 132.96649135 78.23564246 140.7979224 C78.23915807 143.75772875 78.24330406 146.71753405 78.24748212 149.67733953 C78.26594826 162.76143812 78.28168956 175.84553676 78.28938007 188.92964649 C78.29128945 192.1257051 78.29320986 195.32176369 78.29516602 198.51782227 C78.29564976 199.31202624 78.2961335 200.10623021 78.2966319 200.92450096 C78.30490551 213.74684038 78.33019876 226.5690857 78.36274669 239.39138416 C78.39601534 252.60733762 78.41384679 265.82324362 78.41702431 279.03923911 C78.41917188 286.43841276 78.42765823 293.83744946 78.45348549 301.2365818 C78.47546563 307.5475785 78.48311206 313.85840502 78.47351871 320.16943566 C78.46905044 323.37519428 78.47270738 326.58053952 78.49028015 329.78626251 C78.80179976 390.07557853 78.80179976 390.07557853 59 411 C52.40584593 416.85170117 45.14320557 420.72381671 37 424 C37 424.33 37 424.66 37 425 C94.42 425 151.84 425 211 425 C211 424.67 211 424.34 211 424 C209.9584375 423.79246094 208.916875 423.58492187 207.84375 423.37109375 C193.16099376 420.28189571 179.83852722 415.46225865 168 406 C167.31808594 405.49210937 166.63617187 404.98421875 165.93359375 404.4609375 C149.73497711 391.59080373 141.88679636 369.89046796 139.28125 349.98828125 C136.96544653 328.83879212 136.84744065 307.42891108 136.87060547 286.17626953 C136.86924494 284.02609732 136.8674614 281.87592534 136.86529541 279.72575378 C136.86080012 273.97200382 136.86247707 268.2182721 136.8656745 262.46452188 C136.86823757 256.39699161 136.86584989 250.32946272 136.86428833 244.26193237 C136.86247885 234.08672815 136.86484154 223.91153123 136.86962891 213.73632812 C136.87507796 202.02041068 136.87329925 190.30451063 136.8678025 178.5885936 C136.86324689 168.4681296 136.8626325 158.3476708 136.86524117 148.22720611 C136.86678939 142.20914734 136.86703787 136.19109671 136.86370468 130.17303848 C136.86078985 124.51749428 136.86286716 118.86197227 136.86859894 113.20643044 C136.86990696 111.14709192 136.86956631 109.0877515 136.86733627 107.02841377 C136.83291204 71.97508311 136.83291204 71.97508311 139.5625 58.8125 C139.73104492 57.99354248 139.89958984 57.17458496 140.07324219 56.33081055 C143.87381251 39.57744178 152.57036838 26.90631354 167.078125 17.6640625 C170.65567201 15.62658252 174.07107559 14.20889982 178 13 C178 12.67 178 12.34 178 12 C131.47 12 84.94 12 37 12 Z " fill="#89C32E" transform="translate(466,883)"/>
<path d="M0 0 C18.81 0 37.62 0 57 0 C57.0154612 6.11812477 57.0154612 6.11812477 57.03123474 12.35984802 C57.12642181 49.85441747 57.22626487 87.34897225 57.33111694 124.84351596 C57.34488477 129.76831718 57.35861213 134.69311852 57.37231445 139.61791992 C57.37504276 140.59826504 57.37777106 141.57861015 57.38058204 142.58866269 C57.42452985 158.41475719 57.46520693 174.24085845 57.50465261 190.06696474 C57.54527001 206.33362425 57.58945482 222.60027132 57.63687855 238.86691242 C57.66597734 248.88579767 57.69236892 258.90468225 57.71517897 268.92358381 C57.73113712 275.81523211 57.75059333 282.70686528 57.77266841 289.59849667 C57.78526176 293.56098913 57.79643999 297.52347051 57.80341911 301.48597717 C57.82937981 315.67182113 57.89789662 329.84993968 58.43470764 344.02772522 C58.47106368 345.02052126 58.50741973 346.01331731 58.54487747 347.03619808 C59.28635173 364.19051022 62.78620076 381.52459419 74 395 C74.57234375 395.69609375 75.1446875 396.3921875 75.734375 397.109375 C80.67702912 402.55896801 86.52220528 405.88697059 92.92578125 409.3359375 C96 411 96 411 99 413 C52.47 413 5.94 413 -42 413 C-39.35411724 411.23607816 -36.76872392 409.86736992 -33.9375 408.4375 C-19.05353455 400.33684773 -10.06616113 388.04339998 -5.09765625 372.10546875 C0.60926575 349.53331458 -0.69226433 324.74118947 -0.68332577 301.59734702 C-0.67955598 297.53097753 -0.66436562 293.4646463 -0.65071106 289.39830017 C-0.62866679 282.38864311 -0.61351794 275.37900007 -0.60334396 268.3693161 C-0.58862452 258.23507105 -0.56305278 248.10087501 -0.53501268 237.9666591 C-0.48978247 221.51603454 -0.45307069 205.06540282 -0.421875 188.61474609 C-0.3915912 172.65477242 -0.35719662 156.69481614 -0.31738281 140.73486328 C-0.31492126 139.74755001 -0.31245972 138.76023674 -0.30992357 137.74300489 C-0.29754707 132.78888676 -0.28509091 127.83476883 -0.27259517 122.880651 C-0.1693842 81.92045755 -0.08059997 40.96024373 0 0 Z " fill="#79C716" transform="translate(202,895)"/>
<path d="M0 0 C9.24 0 18.48 0 28 0 C38.39001844 23.94039241 48.67214351 47.9241087 58.85888672 71.95166016 C62.04720384 79.47085794 65.2431358 86.98681925 68.43850708 94.50302124 C70.20931785 98.66854774 71.97963384 102.83428452 73.75 107 C74.45833096 108.66666767 75.1666643 110.33333434 75.875 112 C97.12499996 161.99999991 97.12499996 161.99999991 98.18753052 164.50007629 C98.89575782 166.16649048 99.60398942 167.83290283 100.31222534 169.49931335 C102.08471634 173.66982799 103.85713213 177.84037455 105.62939453 182.01098633 C108.79706395 189.46516754 111.96521362 196.91914224 115.13626099 204.37188721 C122.43242548 221.51982633 129.71198139 238.67449859 136.95288086 255.84585571 C165.32299202 344.4801917 165.32299202 344.4801917 222.08203125 410.6875 C230.06293897 413.57971202 238.64464048 414.70208008 247 416 C248.1442041 416.17789063 248.1442041 416.17789063 249.31152344 416.359375 C253.20296897 416.95343484 257.09677153 417.48528855 261 418 C261 424.27 261 430.54 261 437 C187.41 437 113.82 437 38 437 C38 430.73 38 424.46 38 418 C39.79824219 417.75765625 41.59648438 417.5153125 43.44921875 417.265625 C45.86205719 416.92763985 48.2748133 416.58906662 50.6875 416.25 C51.86634766 416.09273437 53.04519531 415.93546875 54.25976562 415.7734375 C68.63150408 413.72595695 82.36285058 410.61652683 91.78515625 398.79296875 C97.03989733 391.03757919 97.95451404 382.34527864 96.3359375 373.28125 C96.01882813 372.0334375 95.70171875 370.785625 95.375 369.5 C95.07335938 368.2728125 94.77171875 367.045625 94.4609375 365.78125 C90.11644365 350.70717284 83.43307971 336.2472831 77.375 321.8125 C69.87198769 303.8931804 62.42794666 285.9508711 55 268 C11.44 267.67 -32.12 267.34 -77 267 C-78.485 271.455 -78.485 271.455 -80 276 C-81.96500262 281.37523974 -84.0164771 286.71766292 -86.0625 292.0625 C-86.34901428 292.81332855 -86.63552856 293.5641571 -86.9307251 294.33773804 C-90.58365127 303.90182522 -94.36232714 313.3924002 -98.375 322.8125 C-112.65873538 355.94771766 -112.65873538 355.94771766 -110.31640625 390.85546875 C-105.72065398 401.83345266 -97.99575781 408.74109058 -87.0625 413.25 C-78.99085535 415.95610052 -70.38885161 416.81009197 -62 418 C-62 424.27 -62 430.54 -62 437 C-113.48 437 -164.96 437 -218 437 C-218 430.73 -218 424.46 -218 418 C-215.133125 417.608125 -212.26625 417.21625 -209.3125 416.8125 C-188.2307917 413.61365984 -173.33622314 403.28020996 -160.6171875 386.43505859 C-129.81760609 343.9143014 -114.1404648 287.81830222 -95.0871582 239.43139648 C-88.83902769 223.56699681 -82.54405263 207.72121894 -76.25 191.875 C-75.66647175 190.40581323 -75.08294515 188.93662581 -74.49942017 187.46743774 C-72.12323764 181.4848169 -69.74692905 175.50224615 -67.3704071 169.51976013 C-61.91427215 155.78486736 -56.46021214 142.04915123 -51.00660801 128.3132534 C-49.06106461 123.4130602 -47.11540338 118.5129138 -45.16967773 113.61279297 C-39.92941153 100.41562348 -34.68953322 87.21830028 -29.45083618 74.02050781 C-27.2958902 68.59158413 -25.14077356 63.1627282 -22.9856205 57.73388672 C-21.52249732 54.04823379 -20.05946864 50.36254341 -18.59667969 46.67675781 C-12.41842437 31.10954277 -6.22929825 15.54688222 0 0 Z M9 12 C5.31430482 19.79530094 2.0927554 27.72980048 -0.98617554 35.77966309 C-7.46028288 52.68593713 -14.16935203 69.49797734 -20.90605927 86.30085754 C-23.27170548 92.20147325 -25.63600995 98.10262686 -28 104.00390625 C-28.25888378 104.65011806 -28.51776756 105.29632988 -28.78449631 105.96212387 C-33.61642958 118.02504467 -38.41201227 130.10212564 -43.1875 142.1875 C-44.73421091 146.10032529 -46.28112218 150.01307136 -47.828125 153.92578125 C-48.23033264 154.94307312 -48.63254028 155.96036499 -49.04693604 157.00848389 C-59.28497828 182.89700497 -69.56841401 208.76753969 -79.86395264 234.63323975 C-81.33258699 238.32292708 -82.80084841 242.01276254 -84.26885986 245.70269775 C-88.65467082 256.72605329 -93.04432815 267.74786201 -97.44137096 278.76674271 C-99.39323652 283.6581538 -101.34378021 288.55007962 -103.29049683 293.44354248 C-110.42368446 311.37076561 -117.56760081 329.28665722 -125.23828125 346.9921875 C-125.74959595 348.17338669 -126.26091064 349.35458588 -126.78771973 350.57157898 C-139.45131821 379.49930165 -155.56114602 407.37378038 -184 423 C-184.99 423.66 -185.98 424.32 -187 425 C-155.98 425 -124.96 425 -93 425 C-95.02125863 422.74045249 -95.02125863 422.74045249 -98.5 421.4375 C-109.67366221 415.94192385 -118.07966 405.66105599 -122.375 394.125 C-122.94469942 392.42580957 -123.48956281 390.717923 -124 389 C-124.19207031 388.37738281 -124.38414062 387.75476562 -124.58203125 387.11328125 C-129.64988171 361.48985044 -116.66303904 334.1456106 -107.06347656 311.23486328 C-102.68517564 300.76868338 -98.48441192 290.23583156 -94.34640503 279.67245483 C-93.617122 277.81170422 -92.88594903 275.95169319 -92.15286255 274.09243774 C-91.12262901 271.47773463 -90.09932644 268.86042925 -89.078125 266.2421875 C-88.76622726 265.45288345 -88.45432953 264.66357941 -88.13298035 263.85035706 C-86.93837152 260.76646149 -86 258.33763875 -86 255 C-36.5 255 13 255 64 255 C64.99 258.3 65.98 261.6 67 265 C68.02552733 267.64643295 69.07135805 270.24570735 70.1953125 272.84765625 C70.65260742 273.92494743 70.65260742 273.92494743 71.11914062 275.02400208 C71.77513203 276.56811935 72.43341413 278.11126517 73.09381104 279.65350342 C74.88631509 283.84103478 76.660102 288.03650919 78.4375 292.23046875 C78.80851837 293.10451355 79.17953674 293.97855835 79.5617981 294.87908936 C83.42274323 303.97957042 87.23430737 313.10034555 91.02581787 322.22994995 C91.74748321 323.96655109 92.47030588 325.70267184 93.19439697 327.43826294 C114.06476318 377.46505888 114.06476318 377.46505888 106 399 C101.09939975 409.28986435 93.15433201 417.20687473 82.5 421.4375 C81.30890625 421.83775391 81.30890625 421.83775391 80.09375 422.24609375 C77.74321041 422.99784913 77.74321041 422.99784913 75 425 C124.17 425 173.34 425 224 425 C221.49145206 423.74572603 218.96836425 422.51969746 216.42578125 421.3359375 C178.34675413 403.36741104 164.65438315 353.72743741 149.45031738 317.24284363 C144.61453656 305.65548141 139.67634338 294.11156469 134.75 282.5625 C133.76009874 280.24034721 132.77027142 277.91816289 131.78051758 275.59594727 C129.80841115 270.96910789 127.83599082 266.34240256 125.86328125 261.71582031 C121.4894619 251.45754076 117.1181294 241.19820375 112.75 230.9375 C112.34057159 229.97579895 111.93114319 229.0140979 111.50930786 228.02325439 C105.54273896 214.00557664 99.60656328 199.9752952 93.6875 185.9375 C84.32680835 163.73790444 74.8876419 141.57202034 65.43777466 119.41026306 C61.97506346 111.28910051 58.51587097 103.16644598 55.05859375 95.04296875 C49.83147772 82.7612955 44.60059631 70.48123258 39.36553955 58.20294189 C38.45243058 56.06119874 37.53946758 53.91939335 36.62664795 51.77752686 C34.02728848 45.67842634 31.42555689 39.58035025 28.81973267 33.48400879 C28.02916729 31.63353372 27.23942069 29.78270862 26.45053101 27.93151855 C25.37815203 25.4156047 24.30278551 22.90099014 23.2265625 20.38671875 C22.7533683 19.27386757 22.7533683 19.27386757 22.27061462 18.13853455 C21.01734061 14.8305829 21.01734061 14.8305829 19 12 C17.31391034 11.92794489 15.62499341 11.91613932 13.9375 11.9375 C11.46875 11.96875 11.46875 11.96875 9 12 Z " fill="#89C32E" transform="translate(1111,883)"/>
<path d="M0 0 C2.16395173 3.24592759 3.60536928 6.58308413 5.09765625 10.1640625 C5.55632584 11.25451118 5.55632584 11.25451118 6.02426147 12.36698914 C7.04020725 14.78499728 8.05144032 17.20494513 9.0625 19.625 C9.7805094 21.3375554 10.49869291 23.05003781 11.21704102 24.76245117 C18.12056532 41.23415329 24.95911257 57.73294316 31.7870636 74.23608398 C35.33383638 82.80856659 38.88736047 91.37824368 42.44152832 99.94766235 C43.49477246 102.4873946 44.5477292 105.0272458 45.60058594 107.56713867 C48.88772451 115.49672995 52.17620192 123.42575878 55.46908569 131.35296631 C57.00624817 135.05371078 58.54269997 138.75475013 60.07910156 142.45581055 C60.80417175 144.20188816 61.5295812 145.94782494 62.25537109 147.69360352 C64.20988396 152.39501175 66.15924287 157.09846499 68.09710693 161.8067627 C68.70299909 163.27854858 69.31015274 164.74981573 69.91851807 166.22058105 C70.78066837 168.30888898 71.63557795 170.40000746 72.48828125 172.4921875 C72.97466064 173.67925293 73.46104004 174.86631836 73.9621582 176.08935547 C75 179 75 179 75 182 C26.82 182 -21.36 182 -71 182 C-70.3332669 178.66633449 -69.7870427 176.1519414 -68.58325195 173.09838867 C-68.14799698 171.98528824 -68.14799698 171.98528824 -67.70394897 170.84970093 C-67.38527863 170.04722931 -67.06660828 169.24475769 -66.73828125 168.41796875 C-66.40027496 167.55700592 -66.06226868 166.69604309 -65.71401978 165.80899048 C-64.58408928 162.93360525 -63.44827607 160.06058072 -62.3125 157.1875 C-61.50750029 155.1423261 -60.70290312 153.09699372 -59.89868164 151.05151367 C-58.17377953 146.66601207 -56.44655759 142.28143362 -54.71777344 137.89746094 C-51.97385925 130.93708921 -49.23991123 123.97282904 -46.5078125 117.0078125 C-37.6483066 94.42640502 -28.76807021 71.8534483 -19.83078003 49.30270386 C-16.29488919 40.37954987 -12.7747219 31.45115619 -9.3203125 22.49609375 C-9.03396942 21.75393112 -8.74762634 21.01176849 -8.4526062 20.24711609 C-7.12612604 16.80583314 -5.80386812 13.36300003 -4.48779297 9.91772461 C-4.03807129 8.74604736 -3.58834961 7.57437012 -3.125 6.3671875 C-2.73570313 5.34737793 -2.34640625 4.32756836 -1.9453125 3.27685547 C-1 1 -1 1 0 0 Z M0 33 C-2.70977297 39.8327632 -5.41794471 46.66615964 -8.125 53.5 C-8.54339142 54.55620544 -8.96178284 55.61241089 -9.39285278 56.70062256 C-16.91506931 75.6947394 -24.39291931 94.70609264 -31.84924316 113.72616577 C-40.75434477 136.44132944 -40.75434477 136.44132944 -45.05859375 147.10546875 C-45.35255539 147.83459473 -45.64651703 148.5637207 -45.9493866 149.31494141 C-47.24287581 152.52006225 -48.54284781 155.72215399 -49.85327148 158.92041016 C-50.49437866 160.50088135 -50.49437866 160.50088135 -51.1484375 162.11328125 C-51.69250244 163.44033081 -51.69250244 163.44033081 -52.24755859 164.79418945 C-53.16142548 167.08478901 -53.16142548 167.08478901 -53 170 C-16.7 170 19.6 170 57 170 C55.15558633 163.85195444 53.39458964 158.15017793 50.875 152.328125 C50.57610367 151.62473495 50.27720734 150.92134491 49.96925354 150.19664001 C49.32285619 148.67649276 48.67419601 147.15730605 48.02346802 145.63900757 C46.22129331 141.43232115 44.43792347 137.21765691 42.65234375 133.00390625 C42.27456284 132.11347122 41.89678192 131.22303619 41.5075531 130.30561829 C37.53142952 120.92123047 33.63798152 111.50314944 29.75460815 102.08007812 C28.56340212 99.18968895 27.37085832 96.29985501 26.17797852 93.41015625 C22.54601563 84.60983245 18.91970709 75.8072272 15.30403137 67.00019836 C13.72736301 63.16232659 12.14678401 59.32607323 10.56539917 55.49014282 C9.81803531 53.67448078 9.07250789 51.85806164 8.32888794 50.04086304 C7.30579481 47.54098551 6.276665 45.043677 5.24609375 42.546875 C4.94492645 41.80651505 4.64375916 41.06615509 4.33346558 40.30335999 C2.68331764 36.3253351 2.68331764 36.3253351 0 33 Z " fill="#89C32E" transform="translate(1098,954)"/>
<path d="M0 0 C0.33 0 0.66 0 1 0 C0.90207041 6.24201634 0.79543131 12.48382086 0.68261719 18.72558594 C0.64571852 20.82255578 0.61071094 22.91956027 0.578125 25.01660156 C0.19645351 49.37201329 -0.98534722 73.64833334 -2 98 C-35 98 -68 98 -102 98 C-102 97.67 -102 97.34 -102 97 C-100.19982422 96.70609375 -100.19982422 96.70609375 -98.36328125 96.40625 C-69.43355472 91.3494875 -42.04190627 78.68721729 -24.375 54.25 C-13.08726635 37.23890844 -5.79081907 19.51484813 0 0 Z " fill="#79C716" transform="translate(848,1210)"/>
<path d="M0 0 C36.63 0 73.26 0 111 0 C111.99 18.005625 111.99 18.005625 113 36.375 C113.31324219 42.03342041 113.31324219 42.03342041 113.6328125 47.80615234 C113.88671875 52.45825195 113.88671875 52.45825195 114.00537109 54.64492798 C114.08770495 56.15287676 114.17109908 57.66076791 114.25537109 59.16860962 C114.71755419 67.45214636 115.1155848 75.6995664 115 84 C112.23378904 81.23378904 111.55565518 77.95089436 110.375 74.3125 C103.13784455 53.06532951 90.3940681 33.92490509 71 22 C70.43909668 21.65469238 69.87819336 21.30938477 69.30029297 20.95361328 C48.38314004 8.34990182 24.20562689 2.54617441 0 1 C0 0.67 0 0.34 0 0 Z " fill="#79C716" transform="translate(331,895)"/>
<path d="M0 0 C36.96 0 73.92 0 112 0 C112 0.33 112 0.66 112 1 C111.04299194 1.11275269 111.04299194 1.11275269 110.06665039 1.2277832 C78.1663773 5.0173191 48.41942012 8.98278688 25 33 C24.28585938 33.70511719 23.57171875 34.41023437 22.8359375 35.13671875 C10.13469417 48.41989156 1.68077656 66.37687623 -3 84 C-3.33 84 -3.66 84 -4 84 C-4.28018608 69.77277371 -3.40855837 55.63422215 -2.5625 41.4375 C-2.4260257 39.08400792 -2.28995555 36.73049236 -2.15429688 34.37695312 C-1.48888996 22.913809 -0.76383316 11.45749746 0 0 Z " fill="#79C716" transform="translate(22,895)"/>
</svg>
